<svg width="480" height="480" viewBox="0 0 480 480" fill="none" xmlns="http://www.w3.org/2000/svg">
<rect width="480" height="480" fill="black"/>
<path d="M174.961 229.13V257.963H167.759V229.13H156.65V223.563H186.094V229.13H174.961ZM189.219 226.786V221.732H196.079V226.786H189.219ZM189.219 257.963V231.547H196.079V257.963H189.219ZM220.005 257.963L212.949 246L209.995 248.051V257.963H203.135V221.732H209.995V242.484L219.419 231.547H226.792L217.515 241.85L227.5 257.963H220.005ZM230.918 244.999V237.553H237.949V244.999H230.918ZM260.264 229.13V257.963H253.062V229.13H241.953V223.563H271.396V229.13H260.264ZM277.842 258.451C276.572 258.451 275.433 258.28 274.424 257.938C273.431 257.58 272.585 257.068 271.885 256.4C271.185 255.717 270.648 254.879 270.273 253.886C269.899 252.893 269.712 251.762 269.712 250.492C269.712 248.93 269.98 247.619 270.518 246.562C271.071 245.487 271.82 244.625 272.764 243.974C273.708 243.306 274.814 242.826 276.084 242.533C277.354 242.224 278.704 242.061 280.137 242.045L285.825 241.947V240.604C285.825 239.644 285.736 238.847 285.557 238.212C285.394 237.561 285.15 237.032 284.824 236.625C284.499 236.218 284.092 235.933 283.604 235.771C283.132 235.591 282.586 235.502 281.968 235.502C281.398 235.502 280.885 235.559 280.43 235.673C279.99 235.787 279.608 235.99 279.282 236.283C278.957 236.56 278.688 236.942 278.477 237.431C278.281 237.903 278.143 238.505 278.062 239.237L270.908 238.896C271.104 237.74 271.462 236.69 271.982 235.746C272.503 234.786 273.219 233.956 274.131 233.256C275.059 232.556 276.19 232.019 277.524 231.645C278.875 231.254 280.454 231.059 282.261 231.059C283.905 231.059 285.369 231.262 286.655 231.669C287.941 232.076 289.032 232.686 289.927 233.5C290.822 234.298 291.506 235.282 291.978 236.454C292.45 237.626 292.686 238.985 292.686 240.531V250.15C292.686 250.769 292.71 251.322 292.759 251.811C292.824 252.299 292.93 252.714 293.076 253.056C293.239 253.381 293.459 253.633 293.735 253.812C294.028 253.975 294.403 254.057 294.858 254.057C295.379 254.057 295.884 254.008 296.372 253.91V257.621C295.965 257.719 295.599 257.808 295.273 257.89C294.948 257.971 294.622 258.036 294.297 258.085C293.971 258.134 293.621 258.174 293.247 258.207C292.889 258.24 292.466 258.256 291.978 258.256C290.252 258.256 288.975 257.833 288.145 256.986C287.331 256.14 286.842 254.895 286.68 253.251H286.533C285.622 254.895 284.45 256.173 283.018 257.084C281.602 257.995 279.876 258.451 277.842 258.451ZM285.825 245.731L282.31 245.78C281.577 245.813 280.877 245.878 280.21 245.976C279.559 246.057 278.981 246.244 278.477 246.537C277.988 246.814 277.598 247.221 277.305 247.758C277.012 248.295 276.865 249.027 276.865 249.955C276.865 251.208 277.15 252.144 277.72 252.763C278.306 253.365 279.079 253.666 280.039 253.666C280.918 253.666 281.715 253.479 282.432 253.104C283.148 252.73 283.75 252.242 284.238 251.64C284.743 251.021 285.133 250.313 285.41 249.516C285.687 248.718 285.825 247.904 285.825 247.074V245.731ZM316.44 257.963L309.385 246L306.431 248.051V257.963H299.57V221.732H306.431V242.484L315.854 231.547H323.228L313.95 241.85L323.936 257.963H316.44Z" fill="white"/>
</svg>
